<svg width="14" height="14" viewBox="0 0 14 14" fill="none" xmlns="http://www.w3.org/2000/svg">
<path d="M9.96533 11.9331H4.03466C1.912 11.9331 1.26666 11.2931 1.26666 9.19174V4.80774C1.26666 2.70641 1.912 2.06641 4.03466 2.06641H9.96C12.0827 2.06641 12.728 2.70641 12.728 4.80774V9.18641C12.7333 11.2931 12.088 11.9331 9.96533 11.9331Z" fill="white"/>
<path d="M4.86669 9.8H3.80002C3.58136 9.8 3.40002 9.61867 3.40002 9.4C3.40002 9.18133 3.58136 9 3.80002 9H4.86669C5.08536 9 5.26669 9.18133 5.26669 9.4C5.26669 9.61867 5.08536 9.8 4.86669 9.8Z" fill="#F9671C"/>
<path d="M8.33332 9.8H6.19999C5.98132 9.8 5.79999 9.61867 5.79999 9.4C5.79999 9.18133 5.98132 9 6.19999 9H8.33332C8.55199 9 8.73332 9.18133 8.73332 9.4C8.73332 9.61867 8.55199 9.8 8.33332 9.8Z" fill="#F9671C"/>
<path d="M12.7333 5.5334H1.26666C1.26666 5.5334 1.26666 5.35207 1.26666 5.1334C1.26666 4.91473 1.26666 4.7334 1.26666 4.7334H12.7333C12.7333 4.7334 12.7333 4.91473 12.7333 5.1334C12.7333 5.35207 12.7333 5.5334 12.7333 5.5334Z" fill="#F9671C"/>
</svg>
