<svg width="274" height="226" viewBox="0 0 274 226" fill="none" xmlns="http://www.w3.org/2000/svg">
<circle cx="128" cy="97" r="97" fill="#F5F7FA"/>
<path d="M261.508 36.1141C253.02 34.156 247.71 37.4311 246.015 39.9574C247.961 39.276 250.727 40.4163 251.867 41.0717C244.986 42.2157 243.88 46.8557 244.187 49.0327C248.559 45.9205 252.536 45.5822 262.036 45.4189C269.635 45.2884 273.017 37.3562 273.757 33.4065C272.87 34.7715 266.954 37.3704 261.508 36.1141Z" fill="#68B936"/>
<path d="M67.8061 192.095L54.5 130H202.5L188.736 192.162C187.722 196.741 183.662 200 178.972 200H77.5842C72.8688 200 68.7941 196.706 67.8061 192.095Z" fill="#68B936"/>
<rect x="211" y="111" width="20" height="166" rx="10" transform="rotate(90 211 111)" fill="#EB3F3E"/>
<rect x="95" y="144.963" width="7" height="40" rx="3.5" transform="rotate(-7.90881 95 144.963)" fill="white"/>
<rect width="7" height="40" rx="3.5" transform="matrix(-0.990488 -0.137597 -0.137597 0.990488 161.437 144.963)" fill="white"/>
<rect width="7" height="40" rx="3.5" transform="matrix(-1 8.74228e-08 8.74228e-08 1 132 144)" fill="white"/>
<path d="M165.5 44.5C187.1 48.9 181.833 62.3333 176.5 68.5C132.227 104.753 59.5852 102.473 22.5 90.6045M1.5 80C3.66667 81.6667 9 85.5 13 87.5" stroke="#AAAAAA" stroke-width="2" stroke-linecap="round" stroke-dasharray="4 6"/>
<path d="M158.106 44C149.439 45 132.506 49.4 134.106 59C135.706 68.6 148.439 69 155.106 69.5C175.106 71 209.7 62.6 232.5 51" stroke="#AAAAAA" stroke-width="2" stroke-linecap="round" stroke-dasharray="4 6"/>
<ellipse cx="129" cy="219.5" rx="71" ry="6.5" fill="#E5E5E5"/>
<circle cx="89" cy="52" r="23" fill="#CFCFCF"/>
<path d="M89 80L85.5359 74L92.4641 74L89 80Z" fill="#CFCFCF"/>
<path d="M97.87 51.709C97.87 53.851 97.6377 55.7153 97.173 57.302C96.7197 58.8773 96.085 60.1807 95.269 61.212C94.4643 62.2433 93.5067 63.014 92.396 63.524C91.2967 64.0227 90.1067 64.272 88.826 64.272C87.5453 64.272 86.3553 64.0227 85.256 63.524C84.168 63.014 83.2217 62.2433 82.417 61.212C81.6123 60.1807 80.9833 58.8773 80.53 57.302C80.0767 55.7153 79.85 53.851 79.85 51.709C79.85 49.5557 80.0767 47.6913 80.53 46.116C80.9833 44.5407 81.6123 43.2373 82.417 42.206C83.2217 41.1747 84.168 40.4097 85.256 39.911C86.3553 39.401 87.5453 39.146 88.826 39.146C90.1067 39.146 91.2967 39.401 92.396 39.911C93.5067 40.4097 94.4643 41.1747 95.269 42.206C96.085 43.2373 96.7197 44.5407 97.173 46.116C97.6377 47.6913 97.87 49.5557 97.87 51.709ZM93.535 51.709C93.535 49.9297 93.4047 48.4563 93.144 47.289C92.8833 46.1217 92.532 45.1923 92.09 44.501C91.6593 43.8097 91.1607 43.328 90.594 43.056C90.0273 42.7727 89.438 42.631 88.826 42.631C88.2253 42.631 87.6417 42.7727 87.075 43.056C86.5197 43.328 86.0267 43.8097 85.596 44.501C85.1653 45.1923 84.8197 46.1217 84.559 47.289C84.3097 48.4563 84.185 49.9297 84.185 51.709C84.185 53.4883 84.3097 54.9617 84.559 56.129C84.8197 57.2963 85.1653 58.2257 85.596 58.917C86.0267 59.6083 86.5197 60.0957 87.075 60.379C87.6417 60.651 88.2253 60.787 88.826 60.787C89.438 60.787 90.0273 60.651 90.594 60.379C91.1607 60.0957 91.6593 59.6083 92.09 58.917C92.532 58.2257 92.8833 57.2963 93.144 56.129C93.4047 54.9617 93.535 53.4883 93.535 51.709Z" fill="white"/>
<rect x="116" y="74" width="25" height="63" rx="12.5" fill="#DC0200"/>
<circle cx="128.5" cy="121.5" r="5.5" fill="white"/>
</svg>
