<svg width="194" height="218" viewBox="0 0 194 218" fill="none" xmlns="http://www.w3.org/2000/svg">
<circle cx="97" cy="121" r="97" fill="#F5F7FA"/>
<g clip-path="url(#clip0_470_5214)">
<rect x="114.252" y="58.0605" width="82.7871" height="99.9972" rx="11.7178" transform="rotate(25.1041 114.252 58.0605)" fill="white"/>
<rect x="117.297" y="73.7207" width="63.6108" height="55.0504" rx="6.69587" transform="rotate(25.5111 117.297 73.7207)" fill="#D9D9D9"/>
<rect x="91.5039" y="132.343" width="41.4004" height="8.31795" rx="4.15897" transform="rotate(25.5111 91.5039 132.343)" fill="#D9D9D9"/>
</g>
<rect x="115.058" y="60.2866" width="79.4392" height="96.6493" rx="10.0438" transform="rotate(25.1041 115.058 60.2866)" stroke="#191919" stroke-width="3.34794"/>
<rect x="30.2686" y="45.1832" width="94.9112" height="115.473" rx="12" transform="rotate(-2.47507 30.2686 45.1832)" fill="white"/>
<rect x="30.2686" y="45.1832" width="94.9112" height="115.473" rx="12" transform="rotate(-2.47507 30.2686 45.1832)" stroke="#68B936" stroke-width="4"/>
<rect x="40.072" y="58.1719" width="76" height="65.7724" rx="8" transform="rotate(-2.06806 40.072 58.1719)" fill="#D9D9D9"/>
<rect x="45.1841" y="134.521" width="49.4638" height="9.938" rx="4.969" transform="rotate(-2.06806 45.1841 134.521)" fill="#D9D9D9"/>
<path d="M64.1687 68.1652C57.8829 64.6415 52.9072 66.0104 50.9761 67.6234C52.6791 67.5337 54.6107 69.0806 55.3635 69.8653C49.6348 69.1778 47.6805 72.6055 47.4195 74.4053C51.6122 72.948 54.8487 73.6019 62.4295 75.6757C68.494 77.3347 73.0187 71.8208 74.5229 68.8565C73.5018 69.7345 68.2014 70.4258 64.1687 68.1652Z" fill="#68B936"/>
<path fill-rule="evenodd" clip-rule="evenodd" d="M112.583 66.163L117.291 61.6171L119.117 67.8562C116.611 68.5193 114.432 67.9574 112.583 66.163ZM122.702 22.4899C120.971 20.2504 118.48 17.9542 114.858 16.9861C107.251 14.9531 101.337 19.6537 100.635 28.0908C99.4868 42.5512 117.291 61.616 117.291 61.616C112.583 66.162 112.583 66.162 112.583 66.162L112.585 66.1543L112.588 66.1429L112.599 66.1011C112.607 66.0707 112.619 66.025 112.273 65.8673C112.304 65.7532 111.986 65.489 111.681 65.1791C111.433 64.6563 110.512 63.7457 109.633 62.6754C107.875 60.5424 105.574 57.531 103.401 54.0441C101.225 50.5686 98.8394 46.4257 96.9155 42.0067C95.3406 37.734 93.9608 32.7309 94.5174 27.7439C94.8927 21.983 97.4373 16.8181 101.455 13.4041C105.842 10.0565 111.474 9.31571 116.545 10.6711C122.341 12.22 125.963 16.0942 128.283 19.0333C128.259 19.1208 128.599 19.3013 128.576 19.3888C128.599 19.3013 128.622 19.2176 129.007 19.2269C132.484 17.8368 137.556 16.2861 142.989 17.7382C154.943 20.933 158.742 34.3107 153.857 43.8758C151.527 48.2379 147.86 51.7944 144.374 54.6737C140.512 57.5056 136.744 59.9876 132.763 61.8135C129.14 63.7515 125.643 65.2177 123.053 66.1966C122.119 66.7866 120.866 67.1163 120.027 67.3525C119.97 67.5656 119.563 67.6361 119.169 67.6573C119.161 67.6877 119.154 67.7143 119.148 67.7372C119.142 67.76 119.137 67.779 119.133 67.7942L119.121 67.8361L119.118 67.8475L119.116 67.8551C119.116 67.8551 119.116 67.8551 117.291 61.616C117.291 61.616 141.537 53.671 148.089 40.773C151.659 34.6757 148.909 26.0863 141.302 24.0533C138.041 23.182 134.737 23.9292 131.758 24.9102C128.693 26.2107 126.302 27.8989 126.302 27.8989C126.302 27.8989 125.071 25.2426 122.702 22.4899Z" fill="#DC0200"/>
<path d="M116.529 64.4329L113.549 60.0265C102.951 44.4228 95.9521 34.1292 98.5306 24.4809C100.632 16.6193 108.759 12.1734 117.003 14.3764C121.66 15.621 125.577 18.8831 127.621 22.9299C131.412 20.4424 136.434 19.5694 141.091 20.814C149.334 23.0171 154.16 30.925 152.059 38.7866C149.481 48.4349 138.28 53.8645 121.304 62.1263L116.529 64.4329Z" fill="#DC0200"/>
<path d="M141 26C144.333 26.3333 150.2 29.2 147 38" stroke="white" stroke-width="4" stroke-linecap="round"/>
<path d="M162.68 13.7034L169.095 8.10446" stroke="#D9D9D9" stroke-width="4" stroke-linecap="round"/>
<path d="M154.309 8.89032L154.827 3.9109" stroke="#D9D9D9" stroke-width="4" stroke-linecap="round"/>
<path d="M165.56 21.3675L170.546 21.8185" stroke="#D9D9D9" stroke-width="4" stroke-linecap="round"/>
<defs>
<clipPath id="clip0_470_5214">
<rect x="114.252" y="58.0605" width="82.7871" height="99.9972" rx="11.7178" transform="rotate(25.1041 114.252 58.0605)" fill="white"/>
</clipPath>
</defs>
</svg>
