<svg width="36" height="36" viewBox="0 0 36 36" fill="none" xmlns="http://www.w3.org/2000/svg">
<path d="M7.5 14.8843C7.5 22.162 13.8667 28.1804 16.6848 30.4878C17.0881 30.818 17.2922 30.9851 17.5931 31.0698C17.8274 31.1358 18.1722 31.1358 18.4065 31.0698C18.708 30.985 18.9106 30.8195 19.3154 30.488C22.1335 28.1806 28.4999 22.1627 28.4999 14.8849C28.4999 12.1308 27.3937 9.48908 25.4246 7.54158C23.4554 5.59409 20.7849 4.5 18.0001 4.5C15.2153 4.5 12.5445 5.59425 10.5754 7.54175C8.60625 9.48924 7.5 12.1301 7.5 14.8843Z" stroke="#12C6EE" stroke-width="3" stroke-linecap="round" stroke-linejoin="round"/>
<path d="M15 13.5C15 15.1569 16.3431 16.5 18 16.5C19.6569 16.5 21 15.1569 21 13.5C21 11.8431 19.6569 10.5 18 10.5C16.3431 10.5 15 11.8431 15 13.5Z" stroke="#12C6EE" stroke-width="3" stroke-linecap="round" stroke-linejoin="round"/>
</svg>
