<svg width="36" height="36" viewBox="0 0 36 36" fill="none" xmlns="http://www.w3.org/2000/svg">
<path d="M13.5 25.5H22.5M13.5 21H22.5M19.5006 4.50131C19.3573 4.5 19.1961 4.5 19.0121 4.5H12.3003C10.6201 4.5 9.77943 4.5 9.1377 4.82698C8.57321 5.1146 8.1146 5.57321 7.82698 6.1377C7.5 6.77943 7.5 7.62014 7.5 9.30029V26.7003C7.5 28.3804 7.5 29.2201 7.82698 29.8618C8.1146 30.4263 8.57321 30.8857 9.1377 31.1733C9.77881 31.5 10.6185 31.5 12.2954 31.5L23.7046 31.5C25.3815 31.5 26.22 31.5 26.8611 31.1733C27.4256 30.8857 27.8857 30.4263 28.1733 29.8618C28.5 29.2207 28.5 28.3822 28.5 26.7054V13.9885C28.5 13.8045 28.4998 13.6433 28.4985 13.5M19.5006 4.50131C19.9287 4.50521 20.1986 4.5211 20.4573 4.58321C20.7634 4.6567 21.0568 4.7779 21.3252 4.94238C21.6278 5.12785 21.8877 5.38772 22.4062 5.90625L27.0945 10.5945C27.6133 11.1133 27.8713 11.372 28.0568 11.6748C28.2213 11.9432 28.343 12.2359 28.4165 12.542C28.4786 12.8007 28.4946 13.0718 28.4985 13.5M19.5006 4.50131L19.5 8.70031C19.5 10.3805 19.5 11.2202 19.827 11.862C20.1146 12.4264 20.5732 12.8857 21.1377 13.1733C21.7788 13.5 22.6185 13.5 24.2954 13.5H28.4985" stroke="#FB73B5" stroke-width="3" stroke-linecap="round" stroke-linejoin="round"/>
</svg>
