<svg width="21" height="20" viewBox="0 0 21 20" fill="none" xmlns="http://www.w3.org/2000/svg">
<path d="M13.5944 4.3076C11.168 1.88119 7.23401 1.88119 4.8076 4.3076C2.38119 6.73401 2.38119 10.668 4.8076 13.0944C7.23401 15.5208 11.168 15.5208 13.5944 13.0944C16.0208 10.668 16.0208 6.73401 13.5944 4.3076ZM3.39338 2.89338C6.60084 -0.314071 11.8012 -0.314071 15.0086 2.89338C17.9767 5.86148 18.1982 10.5361 15.6731 13.7589L19.799 17.8848C20.1895 18.2753 20.1895 18.9085 19.799 19.299C19.4084 19.6895 18.7753 19.6895 18.3848 19.299L14.2589 15.1731C11.0361 17.6982 6.36148 17.4767 3.39338 14.5086C0.185929 11.3012 0.185929 6.10084 3.39338 2.89338Z" fill="#6B6B6B"/>
</svg>
