<svg width="23" height="22" viewBox="0 0 23 22" fill="none" xmlns="http://www.w3.org/2000/svg">
<path fill-rule="evenodd" clip-rule="evenodd" d="M9.92071 20.8392L11.125 18.7938L12.3292 20.8205C11.5264 21.2902 10.7236 21.2974 9.92071 20.8392ZM9.38537 4.49626C8.58253 3.87001 7.51207 3.29547 6.174 3.29547C3.36406 3.29547 1.75838 5.50888 2.2936 8.5482C3.23025 13.7521 11.1249 18.7937 11.1249 18.7937C9.9206 20.839 9.9206 20.839 9.9206 20.839V20.8362V20.8318V20.816C9.9206 20.8046 9.9206 20.7873 9.78679 20.7643C9.78679 20.7212 9.65299 20.658 9.51918 20.5776C9.38537 20.4167 8.98395 20.1826 8.58253 19.8882C7.77969 19.3021 6.70923 18.4576 5.63878 17.4334C4.56832 16.4136 3.36406 15.1784 2.2936 13.8024C1.35695 12.445 0.420306 10.8119 0.152692 9.00208C-0.248729 6.93661 0.152692 4.87689 1.22315 3.29547C2.42741 1.70256 4.30071 0.911133 6.174 0.911133C8.31492 0.911133 9.9206 1.93525 10.9911 2.75253C10.9911 2.78557 11.1249 2.81717 11.1249 2.8502C11.1249 2.81717 11.1249 2.78557 11.2587 2.75253C12.3291 1.93525 13.9348 0.911133 15.9419 0.911133C20.3575 0.911133 22.8999 5.26758 22.097 9.09832C21.6956 10.855 20.759 12.4536 19.8223 13.7966C18.7519 15.1583 17.6814 16.3878 16.4771 17.4062C15.4067 18.4303 14.3362 19.2763 13.5334 19.8652C13.2658 20.1611 12.8644 20.3952 12.5967 20.5575C12.5967 20.6379 12.4629 20.7011 12.3291 20.7457C12.3291 20.7572 12.3291 20.7672 12.3291 20.7758C12.3291 20.7844 12.3291 20.7916 12.3291 20.7974V20.8132V20.8175V20.8204C12.3291 20.8204 12.3291 20.8204 11.1249 18.7937C11.1249 18.7937 18.7519 13.7104 19.8223 8.5482C20.4914 6.06331 18.7519 3.29547 15.9419 3.29547C14.7376 3.29547 13.6672 3.87001 12.7305 4.49626C11.7939 5.24316 11.1249 6.06331 11.1249 6.06331C11.1249 6.06331 10.4558 5.24316 9.38537 4.49626Z" fill="#6B6B6B"/>
</svg>
