<svg width="34" height="34" viewBox="0 0 34 34" fill="none" xmlns="http://www.w3.org/2000/svg">
<g clip-path="url(#clip0_109_2557)">
<path d="M9.38542 15.2929C11.4254 19.3021 14.705 22.5817 18.7212 24.6217L21.8379 21.4979C22.2275 21.1083 22.7871 20.995 23.2758 21.1508C24.8625 21.675 26.5696 21.9583 28.3333 21.9583C29.1196 21.9583 29.75 22.5887 29.75 23.375V28.3333C29.75 29.1196 29.1196 29.75 28.3333 29.75C15.0308 29.75 4.25 18.9692 4.25 5.66667C4.25 4.88042 4.8875 4.25 5.66667 4.25H10.625C11.4112 4.25 12.0417 4.88042 12.0417 5.66667C12.0417 7.43042 12.325 9.1375 12.8492 10.7242C13.005 11.2129 12.8917 11.7725 12.5021 12.1621L9.38542 15.2929Z" fill="#F9671C"/>
</g>
<defs>
<clipPath id="clip0_109_2557">
<rect width="34" height="34" fill="white"/>
</clipPath>
</defs>
</svg>
