<svg width="30" height="30" viewBox="0 0 30 30" fill="none" xmlns="http://www.w3.org/2000/svg">
<path fill-rule="evenodd" clip-rule="evenodd" d="M1.12417 28.8138L6.74858 27.3384L7.29122 27.6605C9.57284 29.0145 12.1882 29.7309 14.8549 29.7319H14.8609C23.0515 29.7319 29.7179 23.0654 29.7212 14.8713C29.7227 10.9005 28.1785 7.16697 25.3728 4.35801C22.5671 1.54906 18.836 0.0013762 14.8667 0C6.66972 0 0.00325376 6.66586 1.26358e-06 14.8593C-0.00115007 17.6672 0.78451 20.4018 2.27207 22.7678L2.62541 23.3301L1.12417 28.8138ZM23.2564 18.722C23.568 18.8726 23.7784 18.9743 23.8683 19.1242C23.9799 19.3105 23.9799 20.205 23.6078 21.2487C23.2354 22.2922 21.4507 23.2446 20.5923 23.3728C19.8227 23.4879 18.8487 23.5359 17.7785 23.1958C17.1297 22.9899 16.2976 22.7151 15.2317 22.2547C11.0436 20.4463 8.21331 16.3872 7.67839 15.62C7.64092 15.5662 7.61471 15.5286 7.60009 15.5091L7.59648 15.5043C7.36006 15.1889 5.77593 13.0752 5.77593 10.8877C5.77593 8.82993 6.78675 7.75133 7.25204 7.25484C7.28392 7.22083 7.31323 7.18955 7.33949 7.16087C7.74897 6.71361 8.23299 6.6018 8.5308 6.6018C8.82858 6.6018 9.12673 6.60455 9.38702 6.61762C9.41914 6.61923 9.45254 6.61904 9.48708 6.61884C9.74742 6.61731 10.072 6.61541 10.3922 7.3845C10.5153 7.68048 10.6956 8.11928 10.8857 8.58209C11.2701 9.51796 11.6948 10.552 11.7695 10.7016C11.8813 10.9252 11.9557 11.186 11.8068 11.4843C11.7844 11.529 11.7638 11.5712 11.744 11.6116C11.6322 11.8399 11.5499 12.0079 11.3601 12.2295C11.2854 12.3167 11.2083 12.4106 11.1311 12.5046C10.9774 12.6917 10.8238 12.8789 10.6899 13.0122C10.4663 13.235 10.2335 13.4767 10.4941 13.9239C10.7547 14.3712 11.6512 15.8341 12.9793 17.0187C14.407 18.2921 15.6477 18.8303 16.2767 19.1031C16.3995 19.1564 16.499 19.1995 16.572 19.236C17.0185 19.4597 17.2791 19.4223 17.5398 19.1242C17.8004 18.8261 18.6565 17.8197 18.9543 17.3725C19.2521 16.9255 19.55 16.9999 19.9594 17.1489C20.369 17.2982 22.5654 18.3788 23.0121 18.6024C23.0993 18.6461 23.1809 18.6855 23.2564 18.722Z" fill="#25D366"/>
</svg>
