<svg width="36" height="36" viewBox="0 0 36 36" fill="none" xmlns="http://www.w3.org/2000/svg">
<path d="M31.5 6H15C14.1715 6 13.5 6.67157 13.5 7.5V24C13.5 24.8284 14.1715 25.5 15 25.5H31.5C32.3284 25.5 33 24.8284 33 24V7.5C33 6.67157 32.3284 6 31.5 6Z" stroke="#F9671C" stroke-width="3" stroke-linejoin="round"/>
<path d="M3 25.5H13.5V15H8.24999L3 19.8461V25.5Z" stroke="#F9671C" stroke-width="3" stroke-linejoin="round"/>
<path d="M13.5 27C13.5 28.6568 12.1568 30 10.5 30C8.84317 30 7.5 28.6568 7.5 27" stroke="#F9671C" stroke-width="3" stroke-linecap="round" stroke-linejoin="round"/>
<path d="M30 27C30 28.6568 28.6568 30 27 30C25.3432 30 24 28.6568 24 27" stroke="#F9671C" stroke-width="3" stroke-linecap="round" stroke-linejoin="round"/>
</svg>
